<?xml version="1.0" encoding="utf-8"?>
<svg version="1.1" xmlns="http://www.w3.org/2000/svg" xmlns:xlink="http://www.w3.org/1999/xlink" x="0px" y="0px" width="400" height="400" viewBox="88 70 103 105" xml:space="preserve">
  <g>
    <path fill="#000000" d="M166,92.1c-4.6,1.2-5.6,2.2-2.1,2.2c1.2,0,2.5,0.2,2.8,0.4c1.3,0.8,1.7,3.3,2.8,15l1.1,12.5l-1.4,1.7c-1.7,2.3-7.4,7.6-8.1,7.6c-0.2,0-0.7-0.5-1-1.2c-0.9-1.9-3.8-1.3-4.7,1c-0.3,0.9-0.3,1.5,0.3,2.3c0.9,1.4,2.9,1.5,5.3,0.2c5.3-2.7,25.7-28,28.1-34.9c0.4-1.1,0.7-2.9,0.7-3.9c0-3.6-4-5.6-5.6-2.7c-0.9,1.7-0.4,3.4,1.6,4.6l1.6,1l-0.7,1.7c-1.4,3.3-10,15.9-11.4,16.8c-0.2,0.1-0.8-4.7-1.4-10.7c-1-11.4-1.8-14.9-3.3-14.8C170.3,91,168.1,91.6,166,92.1z"/>
    <path fill="#000000" d="M108.4,105.7l-7.9,1.5v1.3c0,1.2,0.1,1.3,1.8,1c3-0.4,7,0.7,8.9,2.4c2.3,2,3,3.8,5.6,13.9l2.2,8.6l-2.2,3.9c-5.9,10.4-12.9,19.2-15,19.2c-0.6,0-2-0.8-3.1-1.6c-1.6-1.3-2.5-1.6-4.1-1.6c-3.9,0-6,3.9-4.2,7.5c0.9,1.8,4.4,3.4,6.7,3c5.8-0.9,10.9-6.2,19.6-20.2l3.5-5.6l0.4,1.8c2.1,9.5,4.3,17.8,5.3,19.9c1,2,1.6,2.7,3.3,3.4c1.7,0.7,2.4,0.8,3.9,0.4c2.3-0.6,4.9-2.5,8.3-5.9c2.4-2.4,7.2-9,6.8-9.3c-0.1-0.1-0.7-0.4-1.2-0.7c-0.9-0.5-1.1-0.3-2.2,1.5c-0.7,1.1-2.4,3.1-3.8,4.4c-2.5,2.4-4.5,3.4-5.6,2.7c-1.1-0.7-2.4-4.7-5.3-17l-3-12.7l3.1-4.6c3.8-5.7,7.5-9.6,9.7-10c0.9-0.1,2.6,0,3.9,0.4c5.6,1.7,9.2,0.2,9.2-3.8c0-1.6-0.3-2.4-1.4-3.6c-1.1-1.3-1.7-1.5-4.2-1.7c-2.4-0.2-3.2,0-5.3,1.1c-3.9,2.1-8.1,6.3-12.1,12.2c-2,3-3.8,5.3-3.9,5.3c-0.1-0.1-0.8-2.4-1.6-5.2c-0.8-2.8-1.8-5.9-2.4-7c-1.5-2.9-4.2-6.4-5.1-6.4C116.6,104.3,112.7,104.9,108.4,105.7z"/>
  </g>
</svg>
